<svg width="20" height="20" viewBox="0 0 20 20" fill="none" xmlns="http://www.w3.org/2000/svg">
<path d="M5.85838 0.0700138C4.79439 0.12018 4.06781 0.290013 3.43256 0.539512C2.77523 0.795762 2.21798 1.13951 1.66356 1.69593C1.10923 2.25234 0.767732 2.80992 0.5134 3.46842C0.267234 4.10492 0.100401 4.83217 0.0534012 5.89675C0.0064013 6.96133 -0.00401533 7.30358 0.00123465 10.0192C0.00640131 12.7347 0.0184013 13.0751 0.0699845 14.142C0.120818 15.2057 0.289984 15.9321 0.539566 16.5675C0.796232 17.225 1.13956 17.782 1.69623 18.3365C2.25281 18.8911 2.80998 19.2318 3.46997 19.4865C4.10597 19.7324 4.83339 19.9 5.8978 19.9465C6.96221 19.9932 7.3048 20.004 10.0196 19.9988C12.7344 19.9936 13.0763 19.9815 14.1428 19.931C15.2094 19.8804 15.9319 19.71 16.5676 19.4615C17.225 19.2044 17.7824 18.8615 18.3366 18.3048C18.8908 17.748 19.232 17.19 19.4862 16.5311C19.7326 15.8951 19.9 15.1678 19.9462 14.1041C19.9928 13.0367 20.0038 12.696 19.9987 9.98082C19.9934 7.26558 19.9812 6.92516 19.9306 5.85875C19.88 4.79233 19.7106 4.06817 19.4612 3.43234C19.2042 2.77492 18.8612 2.21834 18.3048 1.66334C17.7484 1.10834 17.1899 0.767345 16.5314 0.513763C15.8949 0.267513 15.168 0.0997637 14.1036 0.0537638C13.0392 0.00776396 12.6966 -0.00415266 9.98079 0.00118065C7.26496 0.00634731 6.92496 0.0180139 5.85838 0.0700138ZM5.97522 18.1475C5.00022 18.1051 4.4708 17.9431 4.11797 17.8075C3.65081 17.6275 3.31798 17.41 2.96639 17.0617C2.61473 16.7135 2.39881 16.3796 2.21639 15.9134C2.0794 15.5606 1.9144 15.0317 1.86881 14.0567C1.81923 13.003 1.80881 12.6866 1.80298 10.0167C1.79715 7.34699 1.8074 7.03091 1.85356 5.97675C1.89523 5.00258 2.05823 4.47258 2.19356 4.11992C2.37356 3.65217 2.59039 3.31992 2.93939 2.96859C3.28839 2.61717 3.62139 2.40076 4.08797 2.21834C4.44047 2.08076 4.96922 1.91718 5.9438 1.87076C6.99838 1.82076 7.31438 1.81076 9.98379 1.80493C12.6532 1.79909 12.97 1.80909 14.025 1.85559C14.9992 1.89793 15.5294 2.05934 15.8817 2.19559C16.349 2.37559 16.6817 2.59176 17.033 2.94142C17.3844 3.29092 17.601 3.62275 17.7834 4.09034C17.9212 4.44175 18.0848 4.97033 18.1308 5.94558C18.181 7.00016 18.1924 7.31641 18.1972 9.98557C18.202 12.6547 18.1926 12.9717 18.1463 14.0256C18.1038 15.0006 17.9422 15.5301 17.8064 15.8834C17.6264 16.3504 17.4094 16.6834 17.0602 17.0345C16.711 17.3858 16.3784 17.6021 15.9116 17.7845C15.5596 17.922 15.0302 18.086 14.0564 18.1324C13.0018 18.182 12.6858 18.1924 10.0154 18.1982C7.34496 18.204 7.0298 18.1932 5.97522 18.1475ZM14.1274 4.65533C14.1278 4.89269 14.1986 5.1246 14.3308 5.32173C14.463 5.51886 14.6507 5.67235 14.8702 5.7628C15.0896 5.85324 15.331 5.87657 15.5637 5.82984C15.7964 5.78311 16.01 5.66842 16.1776 5.50026C16.3451 5.33211 16.459 5.11806 16.5048 4.88517C16.5507 4.65228 16.5264 4.41103 16.4352 4.19192C16.3439 3.97281 16.1897 3.78569 15.9921 3.65422C15.7945 3.52275 15.5623 3.45284 15.3249 3.45334C15.0068 3.454 14.7019 3.58099 14.4773 3.8064C14.2528 4.0318 14.1269 4.33716 14.1274 4.65533ZM4.86539 10.01C4.87097 12.846 7.17421 15.1397 10.0095 15.1344C12.845 15.129 15.1404 12.826 15.135 9.98999C15.1296 7.15399 12.8259 4.85958 9.99004 4.86517C7.15421 4.87075 4.86005 7.17433 4.86539 10.01ZM6.66663 10.0064C6.66533 9.34714 6.85955 8.70229 7.22474 8.15341C7.58992 7.60453 8.10967 7.17626 8.71825 6.92277C9.32683 6.66927 9.99691 6.60193 10.6438 6.72927C11.2906 6.8566 11.8852 7.17289 12.3523 7.63813C12.8194 8.10337 13.138 8.69668 13.2679 9.34302C13.3978 9.98936 13.3332 10.6597 13.0821 11.2693C12.831 11.8789 12.4048 12.4003 11.8574 12.7677C11.31 13.135 10.6659 13.3318 10.0066 13.3331C9.56886 13.3341 9.13521 13.2487 8.73044 13.082C8.32566 12.9153 7.95768 12.6705 7.64753 12.3616C7.33737 12.0527 7.09111 11.6857 6.9228 11.2816C6.7545 10.8775 6.66745 10.4442 6.66663 10.0064Z" fill="#FAF3E4"/>
</svg>
