<svg width="20" height="20" viewBox="0 0 20 20" fill="none" xmlns="http://www.w3.org/2000/svg">
<path d="M18.0415 0.000144571H1.44058C1.254 -0.00252209 1.06866 0.0317278 0.895247 0.100728C0.721915 0.169811 0.563832 0.27231 0.429999 0.402393C0.296249 0.53256 0.189416 0.687726 0.115666 0.859142C0.0418332 1.03056 0.00258333 1.21489 0 1.40147V18.1984C0.00258333 18.385 0.0418332 18.5693 0.115666 18.7408C0.189499 18.9122 0.296249 19.0673 0.429999 19.1975C0.563832 19.3277 0.721915 19.4302 0.895247 19.4992C1.06866 19.5683 1.254 19.6024 1.44058 19.5998H18.0415C18.2281 19.6024 18.4134 19.5683 18.5868 19.4992C18.7603 19.4302 18.9183 19.3277 19.0521 19.1975C19.1859 19.0673 19.2927 18.9121 19.3664 18.7408C19.4403 18.5693 19.4795 18.385 19.4821 18.1984V1.40147C19.4795 1.21489 19.4403 1.03064 19.3664 0.859142C19.2927 0.687726 19.1859 0.53256 19.0521 0.402393C18.9183 0.27231 18.7603 0.169727 18.5868 0.100728C18.4134 0.0317278 18.2281 -0.00252209 18.0415 0.000144571ZM5.90932 16.405H2.96933V7.58521H5.90932V16.405ZM4.43932 6.35038C4.03391 6.35038 3.64507 6.18938 3.35832 5.90263C3.07166 5.61596 2.91057 5.22713 2.91057 4.82163C2.91057 4.41622 3.07166 4.0273 3.35832 3.74063C3.64507 3.45388 4.03391 3.29288 4.43932 3.29288C4.65465 3.26847 4.87265 3.2898 5.07915 3.35547C5.28565 3.42113 5.4759 3.52972 5.63748 3.67405C5.79915 3.81838 5.9284 3.99522 6.01698 4.19297C6.10548 4.39072 6.15132 4.60496 6.15132 4.82163C6.15132 5.0383 6.10548 5.25255 6.01698 5.4503C5.9284 5.64805 5.79915 5.82488 5.63748 5.96921C5.4759 6.11354 5.28565 6.22213 5.07915 6.28779C4.87265 6.35354 4.65465 6.37479 4.43932 6.35038ZM16.5127 16.405H13.5728V11.6717C13.5728 10.4859 13.1514 9.71178 12.0832 9.71178C11.7526 9.7142 11.4307 9.81787 11.1609 10.0089C10.8911 10.1999 10.6862 10.4689 10.5741 10.7799C10.4973 11.0103 10.4641 11.2529 10.4761 11.4953V16.3953H7.53606V7.57537H10.4761V8.81995C10.7431 8.35654 11.1316 7.97471 11.5995 7.71571C12.0675 7.45671 12.5973 7.33029 13.1318 7.34996C15.0918 7.34996 16.5127 8.61412 16.5127 11.3287V16.405Z" fill="#FAF3E4"/>
</svg>
