<svg width="22" height="20" viewBox="0 0 22 20" fill="none" xmlns="http://www.w3.org/2000/svg">
<path fill-rule="evenodd" clip-rule="evenodd" d="M11.9183 7.34612L18.8495 0H21.1473L21.1374 0.0108453L12.9396 8.70184L20.4451 18.6635C20.6358 18.9165 20.6669 19.2557 20.5255 19.5394C20.3932 19.8048 20.131 19.9787 19.8382 19.9999H15.1382C14.8986 19.9826 14.677 19.8627 14.5312 19.6693L9.24972 12.6594L2.35891 19.9999H0L8.22834 11.3037L0.722913 1.34211C0.532216 1.08902 0.501073 0.749838 0.642486 0.466246C0.78389 0.182646 1.07353 0.00342146 1.39042 0.00342146H5.96927C6.23169 0.00342146 6.47887 0.126676 6.63678 0.336269L11.9183 7.34612ZM11.2148 9.19024C11.1911 9.16267 11.1695 9.1339 11.15 9.10411L5.55253 1.67496H3.06655L15.6154 18.3306H18.1015L11.2148 9.19024Z" fill="#FAF3E4"/>
</svg>
