<svg width="20" height="15" viewBox="0 0 20 15" fill="none" xmlns="http://www.w3.org/2000/svg">
<path fill-rule="evenodd" clip-rule="evenodd" d="M0.152291 3.26983C0.0525985 4.53857 0.00179707 5.81067 0 7.08331C0 8.52831 0.0708332 9.88742 0.161145 11.0146C0.290416 12.6233 1.51671 13.8532 3.09895 13.963C4.68738 14.0737 6.91066 14.1666 9.73956 14.1666C12.5685 14.1666 14.7917 14.0737 16.3802 13.963C17.9624 13.8532 19.1887 12.6233 19.318 11.0146C19.4083 9.88742 19.4791 8.52831 19.4791 7.08331C19.4791 5.6879 19.4136 4.37395 19.3268 3.26983C19.2717 2.47552 18.9312 1.72793 18.3682 1.16491C17.8052 0.601896 17.0576 0.261431 16.2633 0.206301C14.689 0.0947391 12.541 0 9.73956 0C6.93811 0 4.78921 0.0947391 3.21582 0.206301C2.42151 0.261431 1.67392 0.601896 1.1109 1.16491C0.547886 1.72793 0.207421 2.47552 0.152291 3.26983ZM12.8385 7.08331L7.96873 4.42707V9.73956L12.8385 7.08331Z" fill="#FAF3E4"/>
</svg>
